<?xml version="1.0" standalone="no"?>
<!DOCTYPE svg PUBLIC "-//W3C//DTD SVG 20010904//EN"
 "http://www.w3.org/TR/2001/REC-SVG-20010904/DTD/svg10.dtd">
<svg version="1.0" xmlns="http://www.w3.org/2000/svg"
 width="2435.000000pt" height="2435.000000pt" viewBox="0 0 2435.000000 2435.000000"
 preserveAspectRatio="xMidYMid meet">
<metadata>
Created by potrace 1.11, written by Peter Selinger 2001-2013
</metadata>
<g transform="translate(0.000000,2435.000000) scale(0.100000,-0.100000)"
fill="#000000" stroke="none">
<path d="M9057 21364 c-1 -1 -108 -5 -237 -8 -129 -4 -257 -9 -285 -10 -27 -2
-104 -6 -170 -10 -66 -4 -136 -9 -155 -11 -19 -2 -73 -7 -120 -10 -47 -3 -98
-8 -115 -9 -16 -2 -64 -6 -105 -10 -41 -4 -86 -9 -100 -10 -14 -2 -72 -9 -130
-15 -105 -12 -163 -19 -210 -26 -14 -2 -92 -13 -175 -25 -153 -21 -380 -59
-515 -85 -41 -8 -86 -17 -100 -19 -14 -3 -81 -17 -150 -31 -69 -14 -136 -28
-150 -31 -14 -3 -133 -31 -265 -64 -805 -198 -1530 -463 -2210 -806 -167 -84
-306 -158 -357 -191 -21 -12 -40 -23 -42 -23 -23 0 -572 -353 -753 -485 -668
-485 -1240 -1072 -1668 -1710 -83 -123 -167 -257 -196 -310 -9 -16 -42 -75
-74 -130 -66 -117 -166 -314 -220 -435 -21 -47 -46 -103 -56 -126 -10 -22 -27
-65 -39 -95 -11 -30 -25 -63 -30 -74 -20 -42 -106 -287 -153 -440 -28 -89 -89
-312 -106 -390 -6 -27 -13 -59 -16 -70 -4 -19 -19 -91 -30 -145 -10 -48 -44
-245 -50 -285 -3 -22 -7 -53 -10 -70 -10 -62 -14 -102 -20 -175 -3 -41 -8 -84
-10 -95 -27 -133 -27 -941 0 -1185 2 -19 6 -62 10 -95 3 -33 10 -91 15 -130 5
-38 12 -90 15 -115 3 -25 7 -54 9 -65 2 -11 7 -42 10 -68 4 -27 9 -59 12 -70
2 -12 9 -49 14 -82 23 -130 67 -331 114 -520 67 -269 231 -779 302 -940 7 -16
31 -75 52 -130 173 -438 448 -978 735 -1445 69 -111 286 -444 343 -525 151
-214 298 -411 443 -595 69 -87 318 -388 331 -400 3 -3 20 -23 39 -45 337 -396
900 -957 1366 -1361 39 -33 81 -69 94 -80 13 -10 31 -26 40 -35 21 -20 211
-177 372 -306 108 -87 475 -366 563 -428 15 -11 47 -34 70 -51 54 -40 260
-184 294 -206 15 -9 32 -20 37 -25 23 -19 357 -237 509 -333 47 -30 542 -327
586 -352 98 -56 381 -212 515 -283 138 -74 579 -294 585 -292 3 1 20 -8 37
-21 18 -13 33 -20 33 -17 0 4 10 1 23 -7 19 -13 191 -93 407 -191 30 -14 136
-59 235 -101 99 -42 191 -82 205 -88 14 -6 27 -12 30 -13 3 -1 16 -7 30 -12
14 -6 68 -28 120 -48 52 -20 109 -42 125 -49 215 -95 1297 -471 1367 -476 4
-1 27 -8 50 -16 39 -14 482 -142 553 -160 17 -4 35 -8 40 -10 15 -4 33 -9 235
-59 102 -25 199 -50 215 -55 17 -5 41 -11 55 -14 14 -2 55 -11 91 -20 37 -8
78 -17 90 -20 13 -3 56 -12 94 -21 39 -8 79 -17 90 -19 11 -2 76 -16 145 -30
140 -30 505 -97 650 -121 52 -8 106 -17 120 -19 23 -4 137 -21 220 -32 19 -3
42 -7 50 -9 8 -2 43 -7 78 -10 35 -4 71 -8 81 -10 10 -2 42 -6 72 -10 30 -3
65 -8 79 -10 14 -2 52 -7 85 -10 33 -3 71 -7 84 -10 13 -2 55 -7 95 -10 39 -4
82 -8 96 -10 14 -1 64 -6 110 -10 47 -4 99 -9 115 -11 17 -2 68 -5 115 -9 47
-3 103 -7 125 -9 39 -4 197 -13 360 -21 441 -22 1220 -22 1490 0 22 2 94 6
160 10 66 4 138 8 160 10 22 1 81 6 130 10 50 3 101 8 115 10 14 2 61 7 105
10 44 4 91 8 105 10 14 2 54 6 90 10 36 3 76 8 90 10 14 2 45 7 70 10 41 5 77
10 150 20 14 2 50 7 80 10 30 3 62 8 70 10 8 2 35 7 60 10 79 10 493 84 621
111 68 14 135 27 149 30 113 22 550 132 730 184 58 17 129 37 159 45 99 28
525 173 676 230 465 177 927 390 1297 599 146 83 197 113 308 181 193 120 585
386 610 415 3 3 34 28 70 55 225 169 457 374 694 610 116 116 170 172 290 305
58 64 185 218 277 337 127 163 308 426 388 563 17 30 36 62 41 70 74 115 254
467 331 648 28 65 14 50 -23 -25 -211 -424 -538 -842 -909 -1164 -142 -122
-149 -129 -274 -222 -256 -192 -540 -366 -818 -501 -240 -116 -348 -163 -622
-266 -126 -48 -341 -118 -495 -160 -100 -28 -263 -71 -280 -75 -8 -2 -87 -19
-175 -38 -88 -20 -173 -38 -190 -40 -37 -6 -202 -36 -235 -42 -13 -2 -58 -9
-100 -15 -42 -6 -85 -12 -96 -14 -27 -5 -101 -15 -159 -21 -27 -3 -66 -8 -85
-10 -64 -9 -193 -20 -330 -30 -47 -4 -101 -8 -120 -10 -208 -22 -1044 -22
-1275 0 -22 2 -85 6 -140 9 -55 3 -111 8 -125 10 -14 3 -61 7 -105 10 -44 3
-96 8 -115 10 -42 5 -128 15 -190 22 -25 2 -56 7 -70 9 -14 2 -52 7 -85 11
-33 3 -69 8 -80 10 -11 2 -42 7 -70 10 -27 4 -53 8 -56 10 -3 2 -34 6 -70 10
-35 3 -67 8 -70 10 -4 2 -24 6 -45 9 -22 4 -88 15 -149 27 -60 11 -119 21
-130 23 -11 2 -58 11 -105 20 -47 9 -96 19 -110 21 -14 3 -33 7 -42 10 -9 3
-25 6 -35 8 -212 42 -735 178 -993 258 -466 144 -1083 369 -1328 483 -29 14
-55 25 -57 25 -6 0 -260 114 -390 175 -697 327 -1455 778 -2029 1208 -576 431
-1059 869 -1481 1342 -44 49 -84 95 -90 101 -5 6 -28 32 -50 58 -22 27 -48 58
-59 70 -114 130 -390 502 -516 696 -6 8 -30 46 -55 84 -25 38 -45 70 -45 72 0
1 -22 38 -49 82 -222 357 -449 850 -570 1237 -17 55 -35 114 -41 130 -37 116
-127 531 -135 625 -1 8 -5 35 -8 60 -8 50 -12 93 -23 220 -15 165 -8 646 11
734 2 12 7 45 10 75 3 30 8 64 10 75 2 12 7 37 10 56 7 51 14 84 36 185 11 50
22 97 24 106 9 43 78 263 104 334 136 372 339 735 579 1035 210 262 398 446
713 703 86 70 406 288 499 340 234 131 305 169 434 231 171 83 242 114 441
193 117 46 464 166 515 178 8 2 74 20 145 40 190 53 448 115 541 129 21 4 66
13 99 20 33 8 83 17 110 22 28 4 57 9 65 10 8 2 33 6 55 9 22 3 51 7 65 9 26
5 228 33 290 41 19 3 60 7 90 10 30 3 75 7 100 10 25 2 79 7 120 10 41 4 93 8
115 10 224 20 1060 28 1280 12 55 -4 132 -10 170 -12 157 -11 203 -15 268 -21
38 -3 76 -7 85 -9 9 -1 53 -6 97 -10 44 -3 91 -8 105 -10 14 -2 97 -13 185
-25 176 -23 170 -22 305 -45 52 -9 111 -18 130 -21 19 -3 42 -7 50 -9 8 -2 35
-7 60 -10 25 -3 53 -8 63 -11 10 -3 30 -7 45 -9 15 -2 95 -18 177 -35 83 -18
169 -36 192 -41 23 -4 90 -20 150 -34 59 -15 115 -28 123 -30 8 -2 44 -11 80
-20 36 -9 72 -18 80 -20 8 -2 71 -19 140 -38 120 -33 171 -46 187 -48 5 -1 19
-6 33 -11 14 -5 93 -30 175 -54 83 -25 159 -49 170 -54 11 -5 79 -28 150 -51
696 -226 1595 -622 2218 -978 20 -11 52 -29 70 -39 237 -135 589 -356 825
-520 85 -59 161 -111 170 -117 13 -9 260 -191 287 -212 6 -4 62 -48 125 -98
63 -49 124 -97 135 -107 169 -141 309 -260 345 -293 25 -23 79 -73 120 -110
122 -112 194 -182 330 -320 122 -123 145 -147 244 -255 94 -102 248 -282 330
-385 49 -60 96 -119 105 -130 145 -176 459 -648 585 -878 20 -37 46 -84 58
-105 25 -44 178 -350 178 -356 0 -2 15 -37 34 -78 82 -176 232 -593 261 -725
2 -10 9 -34 14 -53 6 -19 23 -87 37 -150 14 -63 27 -119 28 -125 2 -5 7 -32
11 -60 5 -27 10 -52 10 -55 1 -3 5 -32 10 -65 5 -33 10 -62 10 -65 1 -3 5 -32
9 -65 4 -33 10 -71 12 -85 17 -113 24 -539 11 -720 -8 -107 -32 -299 -47 -376
-6 -28 -13 -63 -16 -78 -5 -31 -31 -144 -39 -173 -3 -10 1 -4 10 14 8 17 17
46 20 64 3 18 8 36 11 41 6 9 54 198 59 233 2 11 15 70 29 130 13 61 27 124
29 140 3 17 12 73 20 125 26 159 38 254 53 405 4 39 8 84 10 100 8 83 17 361
17 525 -1 268 -13 496 -39 715 -3 22 -7 60 -10 85 -2 25 -7 61 -9 80 -3 19
-10 67 -16 105 -9 67 -23 151 -34 205 -3 14 -8 41 -11 60 -3 19 -7 42 -9 50
-2 8 -7 29 -10 45 -5 33 -8 47 -24 120 -27 118 -55 236 -78 320 -13 50 -31
115 -39 145 -67 251 -257 786 -364 1025 -9 22 -44 99 -75 170 -84 188 -256
528 -380 750 -23 42 -197 335 -260 438 -114 188 -380 574 -558 810 -168 224
-526 661 -627 767 -8 9 -35 38 -58 65 -221 252 -692 724 -1002 1005 -194 176
-199 180 -305 270 -525 447 -1125 898 -1610 1210 -29 19 -106 69 -170 110 -64
41 -131 84 -149 95 -18 11 -89 54 -157 96 -136 83 -385 230 -464 274 -27 15
-108 61 -180 100 -441 247 -1092 566 -1572 771 -723 309 -1556 607 -2195 785
-38 11 -101 28 -140 40 -40 11 -104 28 -143 39 -38 10 -132 34 -208 55 -76 20
-146 38 -155 40 -9 2 -125 29 -257 60 -132 30 -249 57 -260 59 -11 3 -65 14
-120 25 -55 11 -107 22 -115 25 -8 3 -31 7 -50 10 -19 3 -60 10 -90 16 -66 14
-88 18 -160 30 -30 6 -66 12 -80 15 -39 8 -216 38 -295 51 -16 2 -41 6 -55 9
-14 3 -47 7 -75 11 -27 3 -59 8 -70 10 -10 2 -35 6 -55 8 -49 7 -260 36 -290
41 -14 2 -70 9 -125 15 -55 6 -116 13 -135 15 -174 20 -195 22 -295 30 -44 4
-98 9 -120 11 -112 11 -274 23 -395 29 -58 4 -132 8 -165 10 -188 12 -1018 27
-1028 19z"/>
<path d="M23855 7599 c-4 -6 -5 -12 -2 -15 2 -3 7 2 10 11 7 17 1 20 -8 4z"/>
</g>
</svg>
